# xmcd CD database file
# Copyright (C) 1993-1998 Ti Kan
#
# Track frame offsets:
#	187
#	20922
#	33327
#	45865
#	56702
#	70662
#	86905
#	94552
#	103982
#	116815
#	133872
#	150032
#	163547
#	169432
#
# Disc length: 2339 seconds
#
# Revision: 1
# Processed by: cddbd v1.4b41PL1 Copyright (c) Steve Scherf et al.
# Submitted via: CDValet v3.31 - Copyright (c) 1997 Greg Leichner
#
DISCID=b709210e
DTITLE=Memphis Slim - Memphis blues
DYEAR=1900
DGENRE=
TTITLE0=That's where i'm coming from
TTITLE1=Call me the boogie man
TTITLE2=1040 form blues
TTITLE3=You'll soon be singing the blues
TTITLE4=He flew the coop
TTITLE5=Going back to Memphis
TTITLE6=Do you think i've got the blues
TTITLE7=Fore day train
TTITLE8=Shaking that thing
TTITLE9=Early in the morning
TTITLE10=Memphis blues
TTITLE11=Christina
TTITLE12=All by myself
TTITLE13=Bye bye the blues
EXTD=Label: Milan - BMG\nCode:73138.35618-2\nReleased:1992\nLe 
EXTD=Hot Club de France (Archive series)
EXTT0=
EXTT1=
EXTT2=
EXTT3=
EXTT4=
EXTT5=
EXTT6=
EXTT7=
EXTT8=
EXTT9=
EXTT10=
EXTT11=
EXTT12=
EXTT13=
PLAYORDER=
